<svg xmlns="http://www.w3.org/2000/svg" version="1.1" xmlns:xlink="http://www.w3.org/1999/xlink" xmlns:svgjs="http://svgjs.com/svgjs" width="1440" height="560" preserveAspectRatio="none" viewBox="0 0 1440 560"><g mask="url(&quot;#SvgjsMask1094&quot;)" fill="none"><rect width="1440" height="560" x="0" y="0" fill="rgba(255, 255, 255, 1)"></rect><path d="M963.8 324.92 L965.25 327.43L963.1829204525403 327.5170795474597z" stroke="rgba(0, 128, 128, 1)" stroke-width="2.28" stroke-dasharray="3, 3"></path><rect width="302.28000000000003" height="302.28000000000003" clip-path="url(&quot;#SvgjsClipPath1095&quot;)" x="5.92" y="15.13" fill="url(#SvgjsPattern1096)" transform="rotate(101.19, 157.06, 166.27)"></rect><rect width="167.4" height="167.4" clip-path="url(&quot;#SvgjsClipPath1097&quot;)" x="1264.34" y="20.94" fill="url(#SvgjsPattern1098)" transform="rotate(11.03, 1348.04, 104.64)"></rect><rect width="204" height="204" clip-path="url(&quot;#SvgjsClipPath1099&quot;)" x="1020.17" y="298.74" fill="url(#SvgjsPattern1100)" transform="rotate(135.8, 1122.17, 400.74)"></rect><path d="M1289.8300000000002 283.25 L1219.2 401.96999999999997L1329.5639490380604 417.6589490380603z" stroke="rgba(0, 128, 128, 1)" stroke-width="1.39" stroke-dasharray="3, 2"></path><rect width="115.8" height="115.8" clip-path="url(&quot;#SvgjsClipPath1101&quot;)" x="722.11" y="430.54" fill="url(#SvgjsPattern1102)" transform="rotate(227.43, 780.01, 488.44)"></rect><rect width="132" height="132" clip-path="url(&quot;#SvgjsClipPath1103&quot;)" x="410.21" y="-50.6" fill="url(#SvgjsPattern1104)" transform="rotate(145.34, 476.21, 15.4)"></rect><path d="M907.06 117.55a5.6 5.6 0 1 0 11.14 1.13 5.6 5.6 0 1 0-11.14-1.13zM922.98 119.16a5.6 5.6 0 1 0 11.14 1.12 5.6 5.6 0 1 0-11.14-1.12zM938.9 120.77a5.6 5.6 0 1 0 11.14 1.12 5.6 5.6 0 1 0-11.14-1.12zM954.81 122.37a5.6 5.6 0 1 0 11.15 1.13 5.6 5.6 0 1 0-11.15-1.13z" stroke="rgba(0, 128, 128, 1)" stroke-width="1" stroke-dasharray="4, 4"></path><path d="M936.5 541.93a5.6 5.6 0 1 0 0.32-11.2 5.6 5.6 0 1 0-0.32 11.2zM936.96 525.94a5.6 5.6 0 1 0 0.32-11.2 5.6 5.6 0 1 0-0.32 11.2zM937.41 509.94a5.6 5.6 0 1 0 0.32-11.19 5.6 5.6 0 1 0-0.32 11.19zM937.87 493.95a5.6 5.6 0 1 0 0.32-11.2 5.6 5.6 0 1 0-0.32 11.2zM951.59 574.37a5.6 5.6 0 1 0 0.32-11.19 5.6 5.6 0 1 0-0.32 11.19zM952.04 558.38a5.6 5.6 0 1 0 0.32-11.2 5.6 5.6 0 1 0-0.32 11.2zM952.5 542.38a5.6 5.6 0 1 0 0.32-11.19 5.6 5.6 0 1 0-0.32 11.19zM952.95 526.39a5.6 5.6 0 1 0 0.32-11.19 5.6 5.6 0 1 0-0.32 11.19z" stroke="rgba(0, 128, 128, 1)" stroke-width="1"></path><path d="M613.42 157.18 L767.4 217.48L622.489330944718 255.25066905528206z" stroke="rgba(0, 128, 128, 1)" stroke-width="2.7" stroke-dasharray="4, 4"></path><path d="M1247.79 589.66 L1144.3500000000001 557.6800000000001L1132.5936483363982 637.1463516636021z" stroke="rgba(0, 128, 128, 1)" stroke-width="1.83" stroke-dasharray="3, 2"></path><rect width="252" height="252" clip-path="url(&quot;#SvgjsClipPath1105&quot;)" x="405.82" y="264.83" fill="url(#SvgjsPattern1106)" transform="rotate(289.37, 531.82, 390.83)"></rect></g><defs><mask id="SvgjsMask1094"><rect width="1440" height="560" fill="#ffffff"></rect></mask><pattern x="0" y="0" width="13.74" height="13.74" patternUnits="userSpaceOnUse" id="SvgjsPattern1096"><path d="M0 13.74L6.87 0L13.74 13.74" stroke="rgba(0, 128, 128, 1)" fill="none"></path></pattern><clipPath id="SvgjsClipPath1095"><circle r="75.57000000000001" cx="157.06" cy="166.27"></circle></clipPath><pattern x="0" y="0" width="167.4" height="9.3" patternUnits="userSpaceOnUse" id="SvgjsPattern1098"><rect width="167.4" height="4.65" x="0" y="0" fill="rgba(0, 128, 128, 1)"></rect><rect width="167.4" height="4.65" x="0" y="4.65" fill="rgba(0, 0, 0, 0)"></rect></pattern><clipPath id="SvgjsClipPath1097"><circle r="41.85" cx="1348.04" cy="104.64"></circle></clipPath><pattern x="0" y="0" width="6" height="6" patternUnits="userSpaceOnUse" id="SvgjsPattern1100"><path d="M0 6L3 0L6 6" stroke="rgba(0, 128, 128, 1)" fill="none"></path></pattern><clipPath id="SvgjsClipPath1099"><circle r="51" cx="1122.17" cy="400.74"></circle></clipPath><pattern x="0" y="0" width="11.58" height="11.58" patternUnits="userSpaceOnUse" id="SvgjsPattern1102"><path d="M5.79 1L5.79 10.58M1 5.79L10.58 5.79" stroke="rgba(0, 128, 128, 1)" fill="none" stroke-width="1.23"></path></pattern><clipPath id="SvgjsClipPath1101"><circle r="28.95" cx="780.01" cy="488.44"></circle></clipPath><pattern x="0" y="0" width="132" height="6" patternUnits="userSpaceOnUse" id="SvgjsPattern1104"><rect width="132" height="3" x="0" y="0" fill="rgba(0, 128, 128, 1)"></rect><rect width="132" height="3" x="0" y="3" fill="rgba(0, 0, 0, 0)"></rect></pattern><clipPath id="SvgjsClipPath1103"><circle r="33" cx="476.21" cy="15.4"></circle></clipPath><pattern x="0" y="0" width="6" height="6" patternUnits="userSpaceOnUse" id="SvgjsPattern1106"><path d="M0 6L3 0L6 6" stroke="rgba(0, 128, 128, 1)" fill="none"></path></pattern><clipPath id="SvgjsClipPath1105"><circle r="63" cx="531.82" cy="390.83"></circle></clipPath></defs></svg>